<svg width="24" height="24" viewBox="0 0 24 24" fill="none" xmlns="http://www.w3.org/2000/svg">
<path d="M8.24922 22.6125V17.4375L4.38672 20.2875C5.47422 21.3 6.78672 22.0875 8.24922 22.6125Z" fill="#00247D"/>
<path d="M15.75 22.6124C17.2125 22.0874 18.525 21.2999 19.6125 20.2874L15.75 17.3999V22.6124Z" fill="#00247D"/>
<path d="M1.38672 15.75C1.49922 16.125 1.64922 16.4625 1.83672 16.8375L3.29922 15.75H1.38672Z" fill="#00247D"/>
<path d="M20.6992 15.75L22.1617 16.8375C22.3117 16.5 22.4617 16.125 22.6117 15.75H20.6992Z" fill="#00247D"/>
<path d="M8.81211 14.25H0.974609C1.08711 14.775 1.23711 15.2625 1.38711 15.75H3.29961L1.83711 16.8375C2.13711 17.475 2.47461 18.0375 2.88711 18.6L6.74961 15.75H8.24961V16.5L3.86211 19.725L4.38711 20.25L8.24961 17.4375V22.6125C8.73711 22.8 9.22461 22.9125 9.74961 23.025V14.25H8.81211Z" fill="white"/>
<path d="M23.025 14.25H14.25V23.025C14.775 22.9125 15.2625 22.7625 15.75 22.6125V17.4375L19.6125 20.25C20.1375 19.7625 20.5875 19.2375 21.0375 18.675L17.025 15.75H19.575L21.8625 17.4375C21.975 17.25 22.0875 17.025 22.1625 16.8375L20.7 15.75H22.6125C22.7625 15.2625 22.9125 14.775 23.025 14.25Z" fill="white"/>
<path d="M2.88672 18.6001C3.18672 19.0126 3.48672 19.3876 3.82422 19.7626L8.24922 16.5376V15.7876H6.74922L2.88672 18.6001Z" fill="#CF142B"/>
<path d="M17.0625 15.75L21.075 18.675C21.225 18.4875 21.3375 18.3 21.4875 18.1125C21.525 18.075 21.525 18.0375 21.5625 18.0375C21.675 17.85 21.825 17.625 21.9375 17.4375L19.575 15.75H17.0625Z" fill="#CF142B"/>
<path d="M15.75 1.3877V6.5627L19.6125 3.7127C18.525 2.7002 17.2125 1.9127 15.75 1.3877Z" fill="#00247D"/>
<path d="M8.24922 1.3877C6.78672 1.9127 5.47422 2.7002 4.38672 3.7127L8.24922 6.60019V1.3877Z" fill="#00247D"/>
<path d="M22.6117 8.2501C22.4992 7.8751 22.3492 7.5376 22.1617 7.1626L20.6992 8.2501H22.6117Z" fill="#00247D"/>
<path d="M3.29922 8.2501L1.83672 7.1626C1.68672 7.5376 1.53672 7.8751 1.38672 8.2501H3.29922Z" fill="#00247D"/>
<path d="M15.1875 9.7501H22.9875C22.875 9.2251 22.725 8.7376 22.575 8.2501H20.6625L22.125 7.1626C21.825 6.5251 21.4875 5.9626 21.075 5.4001L17.25 8.2501H15.75V7.5001L20.1375 4.2751L19.6125 3.7501L15.75 6.5626V1.3876C15.2625 1.2001 14.775 1.0876 14.25 0.975098V9.7501H15.1875Z" fill="white"/>
<path d="M0.974609 9.7501H9.74961V0.975098C9.22461 1.0876 8.73711 1.2376 8.24961 1.3876V6.5626L4.38711 3.7501C3.86211 4.2376 3.41211 4.7626 2.96211 5.3251L6.97461 8.2501H4.42461L2.13711 6.5626C2.02461 6.7501 1.91211 6.9751 1.83711 7.1626L3.29961 8.2501H1.38711C1.23711 8.7376 1.08711 9.2251 0.974609 9.7501Z" fill="white"/>
<path d="M21.1125 5.3998C20.8125 4.9873 20.5125 4.6123 20.175 4.2373L15.75 7.46231V8.21231H17.25L21.1125 5.3998Z" fill="#CF142B"/>
<path d="M6.93711 8.2502L2.96211 5.3252C2.81211 5.5127 2.69961 5.7002 2.54961 5.8877C2.51211 5.9252 2.51211 5.9627 2.47461 5.9627C2.36211 6.1502 2.21211 6.3752 2.09961 6.5627L4.38711 8.2502H6.93711Z" fill="#CF142B"/>
<path d="M23.025 9.75H14.25V0.975C13.5375 0.825 12.7875 0.75 12 0.75C11.2125 0.75 10.4625 0.825 9.75 0.975V9.75H0.975C0.825 10.4625 0.75 11.2125 0.75 12C0.75 12.7875 0.825 13.5375 0.975 14.25H9.75V23.025C10.4625 23.175 11.2125 23.25 12 23.25C12.7875 23.25 13.5375 23.175 14.25 23.025V14.25H23.025C23.175 13.5375 23.25 12.7875 23.25 12C23.25 11.2125 23.175 10.4625 23.025 9.75Z" fill="#CF142B"/>
</svg>
